<svg width="48" height="48" viewBox="0 0 48 48" fill="none" xmlns="http://www.w3.org/2000/svg">
<path d="M32 28C36.4183 28 40 24.4183 40 20C40 15.5817 36.4183 12 32 12C27.5817 12 24 15.5817 24 20C24 24.4183 27.5817 28 32 28Z" fill="url(#paint0_linear_4_95)"/>
<path d="M30.96 5.45999L31.48 8.41399C31.828 10.384 28.872 10.904 28.526 8.93399L28.006 5.97999C27.658 4.00999 30.614 3.48999 30.96 5.45999ZM41.546 8.98199L39.826 11.44C38.678 13.078 36.222 11.358 37.368 9.71999L39.088 7.26199C40.236 5.62399 42.692 7.34399 41.546 8.98199ZM20.984 10.454L23.442 12.174C25.08 13.322 23.36 15.778 21.722 14.632L19.264 12.912C17.626 11.764 19.346 9.30799 20.984 10.454ZM42.282 25.366L44.74 27.086C46.378 28.234 44.658 30.69 43.02 29.544L40.562 27.824C38.924 26.676 40.644 24.22 42.282 25.366ZM46.542 18.958L43.588 19.478C41.618 19.826 41.098 16.87 43.068 16.524L46.022 16.004C47.992 15.656 48.512 18.612 46.542 18.958Z" fill="#FFB300"/>
<path d="M12 38C7.582 38 4 34.418 4 30C4 25.582 7.582 22 12 22C12.834 22 13.636 22.128 14.392 22.364C15.518 18.68 18.946 16 23 16C27.97 16 32 20.03 32 25C32 25.47 31.964 25.93 31.894 26.38C32.55 26.134 33.258 26 34 26C37.314 26 40 28.686 40 32C40 35.314 37.314 38 34 38H12Z" fill="url(#paint1_linear_4_95)"/>
<path d="M14 25C14 29.97 18.03 34 23 34C27.502 34 31.23 30.696 31.894 26.38C32.55 26.134 33.258 26 34 26C37.314 26 40 28.686 40 32C40 35.314 37.314 38 34 38H12C7.582 38 4 34.418 4 30C4 25.582 7.582 22 12 22C12.834 22 13.636 22.128 14.392 22.364C14.136 23.198 14 24.082 14 25Z" fill="url(#paint2_radial_4_95)"/>
<defs>
<linearGradient id="paint0_linear_4_95" x1="40" y1="12" x2="28.7832" y2="23.0723" gradientUnits="userSpaceOnUse">
<stop stop-color="#FFB301"/>
<stop offset="1" stop-color="#FFC533"/>
</linearGradient>
<linearGradient id="paint1_linear_4_95" x1="22" y1="16" x2="22" y2="38" gradientUnits="userSpaceOnUse">
<stop stop-color="#9FC7FF"/>
<stop offset="1" stop-color="#9BC1F5"/>
</linearGradient>
<radialGradient id="paint2_radial_4_95" cx="0" cy="0" r="1" gradientUnits="userSpaceOnUse" gradientTransform="translate(17.9439 -22.6966) rotate(-90) scale(20.9574 6.69705)">
<stop stop-color="#486DA8" stop-opacity="0.4"/>
<stop offset="1" stop-color="#486DA8" stop-opacity="0"/>
</radialGradient>
</defs>
</svg>
